<svg xmlns="http://www.w3.org/2000/svg" viewBox="0 0 100 100">
  <rect x="5" y="5" width="90" height="90" rx="12" fill="#1e1e2e"/>
  <rect x="5" y="5" width="90" height="20" rx="12" fill="#2a2a3e"/>
  <rect x="5" y="15" width="90" height="10" fill="#2a2a3e"/>
  <circle cx="18" cy="15" r="4" fill="#ff5f57"/>
  <circle cx="30" cy="15" r="4" fill="#ffbd2e"/>
  <circle cx="42" cy="15" r="4" fill="#28c840"/>
  <rect x="12" y="32" width="28" height="5" rx="2" fill="#7c6af7"/>
  <rect x="44" y="32" width="20" height="5" rx="2" fill="#56d364"/>
  <rect x="68" y="32" width="20" height="5" rx="2" fill="#e06c75"/>
  <rect x="18" y="44" width="36" height="5" rx="2" fill="#56d364"/>
  <rect x="58" y="44" width="28" height="5" rx="2" fill="#e5c07b"/>
  <rect x="12" y="56" width="22" height="5" rx="2" fill="#7c6af7"/>
  <rect x="38" y="56" width="40" height="5" rx="2" fill="#61afef"/>
  <rect x="12" y="68" width="56" height="18" rx="4" fill="#2a2a3e" stroke="#7c6af7" stroke-width="1"/>
  <rect x="16" y="73" width="4" height="8" rx="1" fill="#7c6af7"/>
  <rect x="24" y="74" width="28" height="4" rx="2" fill="#56d364"/>
  <rect x="24" y="80" width="18" height="3" rx="1" fill="#4a4a6a"/>
</svg>
